<svg width="300" height="100" viewBox="0 0 300 100" fill="none" xmlns="http://www.w3.org/2000/svg">
<path d="M26.1708 50.6C26.1708 47.8267 26.7894 45.4587 28.0268 43.496C29.2641 41.5333 30.8854 40.04 32.8908 39.016C34.9388 37.992 37.1788 37.48 39.6108 37.48C41.7441 37.48 43.6214 37.7573 45.2428 38.312C46.8641 38.824 48.3148 39.5493 49.5948 40.488C50.8748 41.384 52.0054 42.344 52.9868 43.368V31.72C51.1948 30.312 49.2321 29.2027 47.0988 28.392C44.9654 27.5813 42.2561 27.176 38.9708 27.176C35.3868 27.176 32.0801 27.7307 29.0508 28.84C26.0214 29.9493 23.4188 31.5493 21.2428 33.64C19.0668 35.7307 17.3814 38.2053 16.1868 41.064C14.9921 43.9227 14.3948 47.1013 14.3948 50.6C14.3948 54.0987 14.9921 57.2773 16.1868 60.136C17.3814 62.9947 19.0668 65.4693 21.2428 67.56C23.4188 69.6507 26.0214 71.2507 29.0508 72.36C32.0801 73.4693 35.3868 74.024 38.9708 74.024C42.2561 74.024 44.9654 73.6187 47.0988 72.808C49.2321 71.9973 51.1948 70.888 52.9868 69.48V57.832C52.0054 58.856 50.8748 59.816 49.5948 60.712C48.3148 61.608 46.8641 62.3333 45.2428 62.888C43.6214 63.4427 41.7441 63.72 39.6108 63.72C37.1788 63.72 34.9388 63.208 32.8908 62.184C30.8854 61.16 29.2641 59.6667 28.0268 57.704C26.7894 55.6987 26.1708 53.3307 26.1708 50.6ZM61.8298 28.2V73H72.8378V28.2H61.8298ZM82.3298 28.2V73H93.1458V28.2H82.3298ZM89.1138 37.096H97.8818C100.058 37.096 101.764 37.5867 103.002 38.568C104.239 39.5493 104.858 40.9787 104.858 42.856C104.858 44.6907 104.239 46.0987 103.002 47.08C101.764 48.0613 100.058 48.552 97.8818 48.552H89.1138V57.448H97.8818C101.679 57.448 104.858 56.872 107.418 55.72C110.02 54.5253 111.983 52.84 113.306 50.664C114.628 48.4453 115.29 45.8427 115.29 42.856C115.29 39.784 114.628 37.16 113.306 34.984C111.983 32.808 110.02 31.144 107.418 29.992C104.858 28.7973 101.679 28.2 97.8818 28.2H89.1138V37.096ZM125.213 54.248H159.133V44.52H125.213V54.248ZM152.285 28.2V73H163.101V28.2H152.285ZM122.205 28.2V73H133.021V28.2H122.205ZM179.685 73H202.277V64.104H179.685V73ZM179.685 37.096H202.277V28.2H179.685V37.096ZM179.685 53.8H200.997V45.096H179.685V53.8ZM172.517 28.2V73H182.885V28.2H172.517ZM222.28 52.712L234.824 73H247.496L233.48 52.712H222.28ZM211.08 28.2V73H221.896V28.2H211.08ZM217.864 37.352H226.632C228.082 37.352 229.32 37.5867 230.344 38.056C231.41 38.5253 232.221 39.208 232.776 40.104C233.33 40.9573 233.608 42.0027 233.608 43.24C233.608 44.4773 233.33 45.544 232.776 46.44C232.221 47.2933 231.41 47.9547 230.344 48.424C229.32 48.8507 228.082 49.064 226.632 49.064H217.864V57.448H227.4C231.24 57.448 234.44 56.8293 237 55.592C239.56 54.3547 241.501 52.648 242.824 50.472C244.146 48.2533 244.808 45.7147 244.808 42.856C244.808 39.9547 244.146 37.416 242.824 35.24C241.501 33.0213 239.56 31.2933 237 30.056C234.44 28.8187 231.24 28.2 227.4 28.2H217.864V37.352ZM257.445 57.256L249.893 62.696C250.917 64.8293 252.347 66.792 254.181 68.584C256.016 70.376 258.171 71.8053 260.645 72.872C263.163 73.896 265.872 74.408 268.773 74.408C270.864 74.408 272.891 74.088 274.853 73.448C276.859 72.8507 278.629 71.9547 280.165 70.76C281.744 69.5653 282.981 68.0933 283.877 66.344C284.816 64.552 285.285 62.5253 285.285 60.264C285.285 58.3867 284.987 56.7227 284.389 55.272C283.792 53.8213 282.96 52.5413 281.893 51.432C280.869 50.3227 279.675 49.384 278.309 48.616C276.944 47.8053 275.472 47.1013 273.893 46.504C271.803 45.7787 270.011 45.096 268.517 44.456C267.067 43.816 265.936 43.112 265.125 42.344C264.357 41.576 263.973 40.68 263.973 39.656C263.973 38.6747 264.379 37.864 265.189 37.224C266 36.5413 267.173 36.2 268.709 36.2C269.861 36.2 270.928 36.4347 271.909 36.904C272.933 37.3307 273.851 37.9493 274.661 38.76C275.515 39.528 276.261 40.4453 276.901 41.512L285.157 36.904C284.389 35.368 283.28 33.8533 281.829 32.36C280.379 30.8667 278.544 29.6293 276.325 28.648C274.149 27.6667 271.568 27.176 268.581 27.176C265.68 27.176 263.035 27.688 260.645 28.712C258.299 29.6933 256.421 31.144 255.013 33.064C253.648 34.984 252.965 37.2667 252.965 39.912C252.965 42.1307 253.371 44.0293 254.181 45.608C254.992 47.144 256.016 48.4667 257.253 49.576C258.491 50.6427 259.792 51.5173 261.157 52.2C262.565 52.8827 263.803 53.416 264.869 53.8C267.045 54.6107 268.795 55.336 270.117 55.976C271.44 56.616 272.4 57.2987 272.997 58.024C273.595 58.7067 273.893 59.624 273.893 60.776C273.893 62.1413 273.381 63.2293 272.357 64.04C271.333 64.808 270.032 65.192 268.453 65.192C266.96 65.192 265.531 64.872 264.165 64.232C262.843 63.592 261.605 62.6747 260.453 61.48C259.344 60.2853 258.341 58.8773 257.445 57.256Z" fill="black"/>
</svg>
